<mxfile host="app.diagrams.net" modified="2024-02-05T23:03:10.471Z" agent="Mozilla/5.0 (Macintosh; Intel Mac OS X 10_15_7) AppleWebKit/605.1.15 (KHTML, like Gecko) Version/17.1 Safari/605.1.15" etag="TqLxwgR-rNVNWa15a3nn" version="23.1.1" type="device">
  <diagram name="Page-1" id="p8XZxSLciv-wmF-cNKwl">
    <mxGraphModel dx="1026" dy="692" grid="1" gridSize="10" guides="1" tooltips="1" connect="1" arrows="1" fold="1" page="1" pageScale="1" pageWidth="827" pageHeight="1169" background="#D9F3F8" math="0" shadow="0">
      <root>
        <mxCell id="0" />
        <mxCell id="1" parent="0" />
        <mxCell id="bdButtcnnowy9X9QPUQ--1" value="" style="shape=umlLifeline;perimeter=lifelinePerimeter;whiteSpace=wrap;html=1;container=1;dropTarget=0;collapsible=0;recursiveResize=0;outlineConnect=0;portConstraint=eastwest;newEdgeStyle={&quot;curved&quot;:0,&quot;rounded&quot;:0};participant=umlActor;fillColor=none;size=43;" vertex="1" parent="1">
          <mxGeometry x="150" y="107" width="20" height="333" as="geometry" />
        </mxCell>
        <mxCell id="bdButtcnnowy9X9QPUQ--2" value="" style="html=1;points=[[0,0,0,0,5],[0,1,0,0,-5],[1,0,0,0,5],[1,1,0,0,-5]];perimeter=orthogonalPerimeter;outlineConnect=0;targetShapes=umlLifeline;portConstraint=eastwest;newEdgeStyle={&quot;curved&quot;:0,&quot;rounded&quot;:0};fillColor=#080606;strokeColor=#000000;" vertex="1" parent="bdButtcnnowy9X9QPUQ--1">
          <mxGeometry x="5" y="73" width="10" height="87" as="geometry" />
        </mxCell>
        <mxCell id="bdButtcnnowy9X9QPUQ--3" value="Normal&lt;br&gt;User&lt;br&gt;&lt;span style=&quot;font-weight: normal;&quot;&gt;(Actor)&lt;/span&gt;" style="text;align=center;fontStyle=1;verticalAlign=middle;spacingLeft=3;spacingRight=3;strokeColor=none;rotatable=0;points=[[0,0.5],[1,0.5]];portConstraint=eastwest;html=1;fontFamily=Poppins;fontSource=https%3A%2F%2Ffonts.googleapis.com%2Fcss%3Ffamily%3DPoppins;" vertex="1" parent="1">
          <mxGeometry x="120" y="70" width="80" height="26" as="geometry" />
        </mxCell>
        <mxCell id="bdButtcnnowy9X9QPUQ--4" value="" style="html=1;verticalAlign=bottom;endArrow=block;curved=0;rounded=0;" edge="1" parent="1">
          <mxGeometry x="-0.0008" relative="1" as="geometry">
            <mxPoint x="165" y="219.5" as="sourcePoint" />
            <mxPoint x="405" y="219.5" as="targetPoint" />
            <mxPoint as="offset" />
          </mxGeometry>
        </mxCell>
        <mxCell id="bdButtcnnowy9X9QPUQ--5" value="book_sport_slot&lt;br&gt;(time, date, game_type, partners)" style="edgeLabel;html=1;align=center;verticalAlign=middle;resizable=0;points=[];fontFamily=Poppins;fontSource=https%3A%2F%2Ffonts.googleapis.com%2Fcss%3Ffamily%3DPoppins;labelBackgroundColor=#D9F3F8;" vertex="1" connectable="0" parent="bdButtcnnowy9X9QPUQ--4">
          <mxGeometry x="-0.0366" y="-2" relative="1" as="geometry">
            <mxPoint x="-1" y="-19" as="offset" />
          </mxGeometry>
        </mxCell>
        <mxCell id="bdButtcnnowy9X9QPUQ--6" value="&lt;font data-font-src=&quot;https://fonts.googleapis.com/css?family=Poppins&quot; face=&quot;Poppins&quot;&gt;Sports Booking DB&lt;/font&gt;" style="shape=umlLifeline;perimeter=lifelinePerimeter;whiteSpace=wrap;html=1;container=1;dropTarget=0;collapsible=0;recursiveResize=0;outlineConnect=0;portConstraint=eastwest;newEdgeStyle={&quot;curved&quot;:0,&quot;rounded&quot;:0};" vertex="1" parent="1">
          <mxGeometry x="360" y="100" width="100" height="340" as="geometry" />
        </mxCell>
        <mxCell id="bdButtcnnowy9X9QPUQ--7" value="" style="html=1;points=[[0,0,0,0,5],[0,1,0,0,-5],[1,0,0,0,5],[1,1,0,0,-5]];perimeter=orthogonalPerimeter;outlineConnect=0;targetShapes=umlLifeline;portConstraint=eastwest;newEdgeStyle={&quot;curved&quot;:0,&quot;rounded&quot;:0};fillColor=#080606;strokeColor=#000000;" vertex="1" parent="bdButtcnnowy9X9QPUQ--6">
          <mxGeometry x="45" y="90" width="10" height="170" as="geometry" />
        </mxCell>
        <mxCell id="bdButtcnnowy9X9QPUQ--8" value="" style="html=1;verticalAlign=bottom;endArrow=block;curved=0;rounded=0;" edge="1" parent="1">
          <mxGeometry x="-0.0008" relative="1" as="geometry">
            <mxPoint x="668.5" y="229.5" as="sourcePoint" />
            <mxPoint x="414" y="229.5" as="targetPoint" />
            <mxPoint as="offset" />
          </mxGeometry>
        </mxCell>
        <mxCell id="bdButtcnnowy9X9QPUQ--9" value="fetch_unpaired_players&lt;br&gt;(time, date, game_type)" style="edgeLabel;html=1;align=center;verticalAlign=middle;resizable=0;points=[];fontFamily=Poppins;fontSource=https%3A%2F%2Ffonts.googleapis.com%2Fcss%3Ffamily%3DPoppins;labelBackgroundColor=#D9F3F8;" vertex="1" connectable="0" parent="bdButtcnnowy9X9QPUQ--8">
          <mxGeometry x="-0.0366" y="-2" relative="1" as="geometry">
            <mxPoint x="-1" y="-19" as="offset" />
          </mxGeometry>
        </mxCell>
        <mxCell id="bdButtcnnowy9X9QPUQ--10" value="&lt;font face=&quot;Poppins&quot;&gt;Pairing Algorithm&amp;nbsp;&lt;br&gt;&lt;/font&gt;Class" style="shape=umlLifeline;perimeter=lifelinePerimeter;whiteSpace=wrap;html=1;container=1;dropTarget=0;collapsible=0;recursiveResize=0;outlineConnect=0;portConstraint=eastwest;newEdgeStyle={&quot;curved&quot;:0,&quot;rounded&quot;:0};size=50;" vertex="1" parent="1">
          <mxGeometry x="620" y="100" width="100" height="340" as="geometry" />
        </mxCell>
        <mxCell id="bdButtcnnowy9X9QPUQ--11" value="" style="html=1;points=[[0,0,0,0,5],[0,1,0,0,-5],[1,0,0,0,5],[1,1,0,0,-5]];perimeter=orthogonalPerimeter;outlineConnect=0;targetShapes=umlLifeline;portConstraint=eastwest;newEdgeStyle={&quot;curved&quot;:0,&quot;rounded&quot;:0};fillColor=#080606;strokeColor=#000000;" vertex="1" parent="bdButtcnnowy9X9QPUQ--10">
          <mxGeometry x="45" y="102.5" width="10" height="210" as="geometry" />
        </mxCell>
        <mxCell id="bdButtcnnowy9X9QPUQ--12" value="" style="html=1;points=[[0,0,0,0,5],[0,1,0,0,-5],[1,0,0,0,5],[1,1,0,0,-5]];perimeter=orthogonalPerimeter;outlineConnect=0;targetShapes=umlLifeline;portConstraint=eastwest;newEdgeStyle={&quot;curved&quot;:0,&quot;rounded&quot;:0};fillColor=#333333;" vertex="1" parent="bdButtcnnowy9X9QPUQ--10">
          <mxGeometry x="51" y="254" width="10" height="40" as="geometry" />
        </mxCell>
        <mxCell id="bdButtcnnowy9X9QPUQ--13" value="&lt;font style=&quot;font-size: 12px; background-color: rgb(217, 243, 248);&quot; face=&quot;Poppins&quot;&gt;pairing_algorithm&lt;/font&gt;" style="html=1;align=left;spacingLeft=2;endArrow=block;rounded=0;edgeStyle=orthogonalEdgeStyle;curved=0;rounded=0;" edge="1" parent="bdButtcnnowy9X9QPUQ--10">
          <mxGeometry relative="1" as="geometry">
            <mxPoint x="51" y="234" as="sourcePoint" />
            <Array as="points">
              <mxPoint x="51" y="230" />
              <mxPoint x="81" y="230" />
              <mxPoint x="81" y="264" />
            </Array>
            <mxPoint x="56" y="264" as="targetPoint" />
          </mxGeometry>
        </mxCell>
        <mxCell id="bdButtcnnowy9X9QPUQ--14" value="" style="html=1;verticalAlign=bottom;endArrow=open;dashed=1;endSize=8;curved=0;rounded=0;" edge="1" parent="1" target="bdButtcnnowy9X9QPUQ--11">
          <mxGeometry relative="1" as="geometry">
            <mxPoint x="414.0000000000001" y="278" as="sourcePoint" />
            <mxPoint x="669" y="278" as="targetPoint" />
          </mxGeometry>
        </mxCell>
        <mxCell id="bdButtcnnowy9X9QPUQ--15" value="return player data requested for" style="edgeLabel;html=1;align=center;verticalAlign=middle;resizable=0;points=[];fontFamily=Poppins;fontSource=https%3A%2F%2Ffonts.googleapis.com%2Fcss%3Ffamily%3DPoppins;labelBackgroundColor=#D9F3F8;" vertex="1" connectable="0" parent="bdButtcnnowy9X9QPUQ--14">
          <mxGeometry x="0.0342" y="-1" relative="1" as="geometry">
            <mxPoint x="-3" y="-19" as="offset" />
          </mxGeometry>
        </mxCell>
        <mxCell id="bdButtcnnowy9X9QPUQ--16" value="" style="html=1;verticalAlign=bottom;endArrow=block;curved=0;rounded=0;" edge="1" parent="1">
          <mxGeometry x="-0.0008" relative="1" as="geometry">
            <mxPoint x="665" y="329.5" as="sourcePoint" />
            <mxPoint x="415" y="329.5" as="targetPoint" />
            <mxPoint as="offset" />
          </mxGeometry>
        </mxCell>
        <mxCell id="bdButtcnnowy9X9QPUQ--17" value="update_player_grouping" style="edgeLabel;html=1;align=center;verticalAlign=middle;resizable=0;points=[];fontFamily=Poppins;fontSource=https%3A%2F%2Ffonts.googleapis.com%2Fcss%3Ffamily%3DPoppins;labelBackgroundColor=#D9F3F8;" vertex="1" connectable="0" parent="bdButtcnnowy9X9QPUQ--16">
          <mxGeometry x="-0.0366" y="-2" relative="1" as="geometry">
            <mxPoint x="-1" y="-8" as="offset" />
          </mxGeometry>
        </mxCell>
      </root>
    </mxGraphModel>
  </diagram>
</mxfile>
